<?xml version="1.0" encoding="UTF-8" standalone="no"?>
<svg width="800" height="500" xmlns="http://www.w3.org/2000/svg">
  <style>
    .process-box { fill: #ecf0f1; stroke: #3498db; stroke-width: 2; rx: 5; ry: 5; }
    .decision-box { fill: #ecf0f1; stroke: #e74c3c; stroke-width: 2; }
    .data-box { fill: #f9f9f9; stroke: #27ae60; stroke-width: 2; rx: 5; ry: 5; }
    .title-text { font: bold 16px Arial; fill: #2c3e50; text-anchor: middle; }
    .process-text { font: 14px Arial; fill: #34495e; text-anchor: middle; }
    .decision-text { font: 14px Arial; fill: #c0392b; text-anchor: middle; }
    .data-text { font: 14px Arial; fill: #27ae60; text-anchor: middle; }
    .arrow { stroke: #95a5a6; stroke-width: 2; fill: none; marker-end: url(#arrowhead); }
    .data-flow { stroke: #27ae60; stroke-width: 2; fill: none; marker-end: url(#arrowhead); }
    .feedback-flow { stroke: #e74c3c; stroke-width: 2; fill: none; marker-end: url(#arrowhead); stroke-dasharray: 5,3; }
  </style>
  
  <defs>
    <marker id="arrowhead" markerWidth="10" markerHeight="7" refX="9" refY="3.5" orient="auto">
      <polygon points="0 0, 10 3.5, 0 7" fill="#95a5a6" />
    </marker>
  </defs>
  
  <rect width="800" height="500" fill="#f9f9f9" />
  
  <!-- Title -->
  <text x="400" y="40" font-family="Arial" font-size="24" font-weight="bold" fill="#2c3e50" text-anchor="middle">Data Fusion Workflow</text>
  
  <!-- Data Sources -->
  <rect x="100" y="80" width="150" height="60" class="data-box" />
  <text x="175" y="110" class="data-text">Satellite Data</text>
  
  <rect x="325" y="80" width="150" height="60" class="data-box" />
  <text x="400" y="110" class="data-text">Sensor Networks</text>
  
  <rect x="550" y="80" width="150" height="60" class="data-box" />
  <text x="625" y="110" class="data-text">Historical Records</text>
  
  <!-- Preprocessing -->
  <rect x="100" y="180" width="150" height="60" class="process-box" />
  <text x="175" y="210" class="process-text">Preprocessing</text>
  
  <rect x="325" y="180" width="150" height="60" class="process-box" />
  <text x="400" y="210" class="process-text">Preprocessing</text>
  
  <rect x="550" y="180" width="150" height="60" class="process-box" />
  <text x="625" y="210" class="process-text">Preprocessing</text>
  
  <!-- Feature Extraction -->
  <rect x="100" y="280" width="150" height="60" class="process-box" />
  <text x="175" y="310" class="process-text">Feature Extraction</text>
  
  <rect x="325" y="280" width="150" height="60" class="process-box" />
  <text x="400" y="310" class="process-text">Feature Extraction</text>
  
  <rect x="550" y="280" width="150" height="60" class="process-box" />
  <text x="625" y="310" class="process-text">Feature Extraction</text>
  
  <!-- Fusion Process -->
  <rect x="250" y="380" width="300" height="60" class="process-box" />
  <text x="400" y="410" class="process-text">Bayesian Fusion Process</text>
  
  <!-- Quality Check -->
  <polygon points="650,380 700,410 650,440 600,410" class="decision-box" />
  <text x="650" y="410" class="decision-text">Quality Check</text>
  
  <!-- Arrows -->
  <!-- Data to Preprocessing -->
  <path d="M175,140 L175,180" class="arrow" />
  <path d="M400,140 L400,180" class="arrow" />
  <path d="M625,140 L625,180" class="arrow" />
  
  <!-- Preprocessing to Feature Extraction -->
  <path d="M175,240 L175,280" class="arrow" />
  <path d="M400,240 L400,280" class="arrow" />
  <path d="M625,240 L625,280" class="arrow" />
  
  <!-- Feature Extraction to Fusion -->
  <path d="M175,340 L175,380 L250,380" class="arrow" />
  <path d="M400,340 L400,380" class="arrow" />
  <path d="M625,340 L625,380 L550,380" class="arrow" />
  
  <!-- Fusion to Quality Check -->
  <path d="M550,410 L600,410" class="arrow" />
  
  <!-- Feedback Loop -->
  <path d="M650,440 L650,460 L400,460 L400,440" class="feedback-flow" />
  
  <!-- Labels -->
  <text x="175" y="360" font-family="Arial" font-size="12" fill="#7f8c8d" text-anchor="middle">Spatial Features</text>
  <text x="400" y="360" font-family="Arial" font-size="12" fill="#7f8c8d" text-anchor="middle">Temporal Features</text>
  <text x="625" y="360" font-family="Arial" font-size="12" fill="#7f8c8d" text-anchor="middle">Contextual Features</text>
  <text x="575" y="390" font-family="Arial" font-size="12" fill="#7f8c8d" text-anchor="middle">Fused Data</text>
  <text x="525" y="470" font-family="Arial" font-size="12" fill="#e74c3c" text-anchor="middle">Refinement Feedback</text>
</svg> 