<?xml version="1.0" encoding="UTF-8" standalone="no"?>
<svg width="700" height="500" xmlns="http://www.w3.org/2000/svg">
  <style>
    .tier-box { stroke-width: 2; }
    .hot-tier { fill: #e74c3c; stroke: #c0392b; }
    .warm-tier { fill: #f39c12; stroke: #d35400; }
    .cold-tier { fill: #3498db; stroke: #2980b9; }
    .glacier-tier { fill: #95a5a6; stroke: #7f8c8d; }
    .tier-text { font: bold 16px Arial; fill: white; text-anchor: middle; }
    .tier-subtext { font: 14px Arial; fill: white; text-anchor: middle; }
    .tier-details { font: 12px Arial; fill: #2c3e50; text-anchor: middle; }
    .arrow { stroke: #34495e; stroke-width: 2; fill: none; marker-end: url(#arrowhead); }
    .label { font: 14px Arial; fill: #34495e; text-anchor: middle; }
    .title { font: bold 24px Arial; fill: #2c3e50; text-anchor: middle; }
    .subtitle { font: 16px Arial; fill: #7f8c8d; text-anchor: middle; }
  </style>
  
  <defs>
    <marker id="arrowhead" markerWidth="10" markerHeight="7" refX="9" refY="3.5" orient="auto">
      <polygon points="0 0, 10 3.5, 0 7" fill="#34495e" />
    </marker>
  </defs>
  
  <rect width="700" height="500" fill="#f9f9f9" />
  
  <!-- Title -->
  <text x="350" y="40" class="title">Memory Tier Architecture</text>
  <text x="350" y="70" class="subtitle">Data Storage and Retrieval Strategy</text>
  
  <!-- Hot Tier -->
  <rect x="100" y="120" width="500" height="70" rx="5" class="tier-box hot-tier" />
  <text x="350" y="150" class="tier-text">HOT MEMORY</text>
  <text x="350" y="175" class="tier-subtext">High-Speed, In-Memory Storage</text>
  
  <!-- Warm Tier -->
  <rect x="125" y="210" width="450" height="70" rx="5" class="tier-box warm-tier" />
  <text x="350" y="240" class="tier-text">WARM MEMORY</text>
  <text x="350" y="265" class="tier-subtext">SSD-Based Fast Access Storage</text>
  
  <!-- Cold Tier -->
  <rect x="150" y="300" width="400" height="70" rx="5" class="tier-box cold-tier" />
  <text x="350" y="330" class="tier-text">COLD MEMORY</text>
  <text x="350" y="355" class="tier-subtext">HDD-Based Long-Term Storage</text>
  
  <!-- Glacier Tier -->
  <rect x="175" y="390" width="350" height="70" rx="5" class="tier-box glacier-tier" />
  <text x="350" y="420" class="tier-text">GLACIER MEMORY</text>
  <text x="350" y="445" class="tier-subtext">Archival Storage</text>
  
  <!-- Arrows -->
  <!-- Migration Arrows -->
  <path d="M620,155 L650,155 L650,245 L575,245" class="arrow" />
  <path d="M595,245 L625,245 L625,335 L550,335" class="arrow" />
  <path d="M570,335 L600,335 L600,425 L525,425" class="arrow" />
  
  <!-- Retrieval Arrows -->
  <path d="M80,155 L50,155 L50,245 L125,245" class="arrow" />
  <path d="M105,245 L75,245 L75,335 L150,335" class="arrow" />
  <path d="M130,335 L100,335 L100,425 L175,425" class="arrow" />
  
  <!-- Labels -->
  <text x="650" y="200" class="label">Migration</text>
  <text x="50" y="200" class="label">Retrieval</text>
  
  <!-- Details -->
  <text x="350" y="195" class="tier-details">Access Time: Milliseconds • Capacity: GB • Cost: $$$</text>
  <text x="350" y="285" class="tier-details">Access Time: Seconds • Capacity: TB • Cost: $$</text>
  <text x="350" y="375" class="tier-details">Access Time: Minutes • Capacity: 10s of TB • Cost: $</text>
  <text x="350" y="465" class="tier-details">Access Time: Hours • Capacity: PB • Cost: ¢</text>
</svg> 