<svg width="800" height="400" viewBox="0 0 800 400" xmlns="http://www.w3.org/2000/svg">
  <!-- Background -->
  <rect width="800" height="400" fill="#f8f9fa" class="bg" />
  
  <!-- Grid -->
  <g class="grid" stroke="#e0e0e0" stroke-width="1">
    <!-- Vertical lines -->
    <line x1="0" y1="0" x2="0" y2="400" />
    <line x1="40" y1="0" x2="40" y2="400" />
    <line x1="80" y1="0" x2="80" y2="400" />
    <line x1="120" y1="0" x2="120" y2="400" />
    <line x1="160" y1="0" x2="160" y2="400" />
    <line x1="200" y1="0" x2="200" y2="400" />
    <line x1="240" y1="0" x2="240" y2="400" />
    <line x1="280" y1="0" x2="280" y2="400" />
    <line x1="320" y1="0" x2="320" y2="400" />
    <line x1="360" y1="0" x2="360" y2="400" />
    <line x1="400" y1="0" x2="400" y2="400" />
    <line x1="440" y1="0" x2="440" y2="400" />
    <line x1="480" y1="0" x2="480" y2="400" />
    <line x1="520" y1="0" x2="520" y2="400" />
    <line x1="560" y1="0" x2="560" y2="400" />
    <line x1="600" y1="0" x2="600" y2="400" />
    <line x1="640" y1="0" x2="640" y2="400" />
    <line x1="680" y1="0" x2="680" y2="400" />
    <line x1="720" y1="0" x2="720" y2="400" />
    <line x1="760" y1="0" x2="760" y2="400" />
    <line x1="800" y1="0" x2="800" y2="400" />
    
    <!-- Horizontal lines -->
    <line x1="0" y1="0" x2="800" y2="0" />
    <line x1="0" y1="40" x2="800" y2="40" />
    <line x1="0" y1="80" x2="800" y2="80" />
    <line x1="0" y1="120" x2="800" y2="120" />
    <line x1="0" y1="160" x2="800" y2="160" />
    <line x1="0" y1="200" x2="800" y2="200" />
    <line x1="0" y1="240" x2="800" y2="240" />
    <line x1="0" y1="280" x2="800" y2="280" />
    <line x1="0" y1="320" x2="800" y2="320" />
    <line x1="0" y1="360" x2="800" y2="360" />
    <line x1="0" y1="400" x2="800" y2="400" />
  </g>
  
  <!-- Connection Network (pre-generated) -->
  <g class="network">
    <line x1="100" y1="100" x2="300" y2="80" stroke="#4a86e8" stroke-width="1" opacity="0.3" />
    <line x1="200" y1="150" x2="400" y2="120" stroke="#4a86e8" stroke-width="1" opacity="0.3" />
    <line x1="300" y1="80" x2="500" y2="90" stroke="#4a86e8" stroke-width="1" opacity="0.3" />
    <line x1="400" y1="120" x2="600" y2="130" stroke="#4a86e8" stroke-width="1" opacity="0.3" />
    <line x1="500" y1="90" x2="700" y2="70" stroke="#4a86e8" stroke-width="1" opacity="0.3" />
    <line x1="600" y1="130" x2="650" y2="200" stroke="#4a86e8" stroke-width="1" opacity="0.3" />
    <line x1="150" y1="220" x2="250" y2="280" stroke="#4a86e8" stroke-width="1" opacity="0.3" />
    <line x1="250" y1="280" x2="350" y2="250" stroke="#4a86e8" stroke-width="1" opacity="0.3" />
    <line x1="350" y1="250" x2="450" y2="300" stroke="#4a86e8" stroke-width="1" opacity="0.3" />
    <line x1="450" y1="300" x2="550" y2="330" stroke="#4a86e8" stroke-width="1" opacity="0.3" />
    <line x1="550" y1="330" x2="720" y2="320" stroke="#4a86e8" stroke-width="1" opacity="0.3" />
    <line x1="520" y1="210" x2="370" y2="200" stroke="#4a86e8" stroke-width="1" opacity="0.3" />
    <line x1="370" y1="200" x2="150" y2="220" stroke="#4a86e8" stroke-width="1" opacity="0.3" />
    <line x1="400" y1="120" x2="520" y2="210" stroke="#4a86e8" stroke-width="1" opacity="0.3" />
    <line x1="300" y1="80" x2="370" y2="200" stroke="#4a86e8" stroke-width="1" opacity="0.3" />
  </g>
  
  <!-- Math Symbols -->
  <g class="math-symbols">
    <text x="100" y="100" font-size="24" fill="#4a86e8">∇f(x)</text>
    <text x="200" y="150" font-size="28" fill="#4a86e8">∫</text>
    <text x="300" y="80" font-size="22" fill="#4a86e8">∑</text>
    <text x="400" y="120" font-size="26" fill="#4a86e8">Ω</text>
    <text x="500" y="90" font-size="24" fill="#4a86e8">λ</text>
    <text x="600" y="130" font-size="22" fill="#4a86e8">∃</text>
    <text x="700" y="70" font-size="24" fill="#4a86e8">θ</text>
    <text x="650" y="200" font-size="28" fill="#4a86e8">∝</text>
    <text x="150" y="220" font-size="22" fill="#4a86e8">∈</text>
    <text x="250" y="280" font-size="24" fill="#4a86e8">∂</text>
    <text x="350" y="250" font-size="26" fill="#4a86e8">β</text>
    <text x="450" y="300" font-size="22" fill="#4a86e8">γ</text>
    <text x="550" y="330" font-size="24" fill="#4a86e8">δ</text>
    <text x="720" y="320" font-size="28" fill="#4a86e8">ε</text>
    <text x="520" y="210" font-size="22" fill="#4a86e8">μ</text>
    <text x="370" y="200" font-size="24" fill="#4a86e8">σ</text>
  </g>
  
  <!-- Algorithm Visualization -->
  <g class="algorithms" transform="translate(50, 50)">
    <!-- Kriging Visualization -->
    <g transform="translate(500, 220)" class="algorithm kriging">
      <circle cx="0" cy="0" r="20" fill="#4a86e8" opacity="0.7" />
      <circle cx="40" cy="-30" r="15" fill="#4a86e8" opacity="0.7" />
      <circle cx="-30" cy="40" r="25" fill="#4a86e8" opacity="0.7" />
      <circle cx="60" cy="20" r="18" fill="#4a86e8" opacity="0.7" />
      <circle cx="-50" cy="-20" r="15" fill="#4a86e8" opacity="0.7" />
      
      <!-- Interpolation surface -->
      <path d="M-60,-40 Q0,-80 60,-40 Q90,0 60,40 Q0,80 -60,40 Q-90,0 -60,-40Z" fill="#4a86e8" opacity="0.2" />
    </g>
    
    <!-- Point Pattern Visualization -->
    <g transform="translate(200, 150)" class="algorithm point-pattern">
      <circle cx="-30" cy="-20" r="5" fill="#e74c3c" />
      <circle cx="-20" cy="-30" r="5" fill="#e74c3c" />
      <circle cx="-15" cy="-25" r="5" fill="#e74c3c" />
      <circle cx="-25" cy="-15" r="5" fill="#e74c3c" />
      <circle cx="-10" cy="-20" r="5" fill="#e74c3c" />
      
      <circle cx="30" cy="25" r="5" fill="#e74c3c" />
      <circle cx="20" cy="30" r="5" fill="#e74c3c" />
      <circle cx="25" cy="20" r="5" fill="#e74c3c" />
      <circle cx="15" cy="25" r="5" fill="#e74c3c" />
      <circle cx="25" cy="15" r="5" fill="#e74c3c" />
      
      <circle cx="-30" cy="30" r="5" fill="#e74c3c" />
      <circle cx="30" cy="-30" r="5" fill="#e74c3c" />
      
      <!-- Circle showing clustering -->
      <circle cx="-20" cy="-22" r="20" fill="none" stroke="#e74c3c" stroke-width="2" stroke-dasharray="5,5" />
      <circle cx="23" cy="23" r="20" fill="none" stroke="#e74c3c" stroke-width="2" stroke-dasharray="5,5" />
    </g>
    
    <!-- Time Series Visualization -->
    <g transform="translate(300, 250)" class="algorithm time-series">
      <!-- Trend component -->
      <path d="M-100,0 L100,30" stroke="#2ecc71" stroke-width="3" fill="none" />
      
      <!-- Seasonal component -->
      <path d="M-100,0 Q-75,-20 -50,0 Q-25,20 0,0 Q25,-20 50,0 Q75,20 100,0" 
            stroke="#3498db" stroke-width="2" fill="none" />
      
      <!-- Combined series -->
      <path d="M-100,0 Q-85,-25 -75,-10 Q-65,5 -50,5 Q-35,15 -25,20 Q-15,25 0,30 Q15,35 25,20 Q35,5 50,30 Q65,55 75,40 Q85,25 100,30" 
            stroke="#8e44ad" stroke-width="3" fill="none" />
    </g>
  </g>
  
  <style>
    @media (prefers-color-scheme: dark) {
      .bg { fill: #1a1a1a; }
      .grid line { stroke: #333; }
      .math-symbols text { fill: #5f97f6; }
      .algorithm.kriging circle { fill: #5f97f6; }
      .algorithm.kriging path { fill: #5f97f6; }
      .algorithm.point-pattern circle[fill="#e74c3c"] { fill: #ff6b6b; }
      .algorithm.point-pattern circle[stroke="#e74c3c"] { stroke: #ff6b6b; }
      .algorithm.time-series path[stroke="#2ecc71"] { stroke: #2fb344; }
      .algorithm.time-series path[stroke="#3498db"] { stroke: #2392a9; }
      .algorithm.time-series path[stroke="#8e44ad"] { stroke: #9b59b6; }
      .network line { stroke: #5f97f6; }
    }
  </style>
</svg> 